<?xml version="1.0" encoding="utf-8"?>
<!-- Generated by IcoMoon.io -->
<!DOCTYPE svg PUBLIC "-//W3C//DTD SVG 1.1//EN" "http://www.w3.org/Graphics/SVG/1.1/DTD/svg11.dtd">
<svg version="1.1" xmlns="http://www.w3.org/2000/svg" xmlns:xlink="http://www.w3.org/1999/xlink" width="32" height="32" viewBox="0 0 32 32">
<path fill="#444444" d="M29.25 7.050c-0.551-0.15-1.1 0.15-1.25 0.7l-2.75 10.25h-16.25l-3-15.2c-0.1-0.45-0.5-0.8-1-0.8h-4c-0.55 0-1 0.45-1 1s0.45 1 1 1h3.2l3.8 19.2c0.1 0.449 0.5 0.8 1 0.8h16c0.551 0 1-0.45 1-1s-0.449-1-1-1h-15.2l-0.4-2h16.6c0.45 0 0.85-0.3 0.95-0.75l3-11c0.151-0.5-0.15-1.050-0.7-1.2z"></path>
<path fill="#444444" d="M13 27.5c0 1.381-1.119 2.5-2.5 2.5s-2.5-1.119-2.5-2.5c0-1.381 1.119-2.5 2.5-2.5s2.5 1.119 2.5 2.5z"></path>
<path fill="#444444" d="M26 27.5c0 1.381-1.119 2.5-2.5 2.5s-2.5-1.119-2.5-2.5c0-1.381 1.119-2.5 2.5-2.5s2.5 1.119 2.5 2.5z"></path>
<path fill="#444444" d="M16.3 15.7c0.2 0.2 0.45 0.3 0.7 0.3s0.5-0.101 0.7-0.3l5-5c0.399-0.4 0.399-1 0-1.4-0.4-0.399-1-0.399-1.4 0l-3.3 3.3v-9.6c0-0.55-0.45-1-1-1s-1 0.45-1 1v9.6l-2.8-2.8c-0.4-0.4-1-0.4-1.4 0s-0.4 1 0 1.4l4.5 4.5z"></path>
</svg>
